# xmcd CD database file
#
# Track frame offsets:
#	150
#	9382
#	27958
#	38470
#	53446
#	68998
#	88582
#	114214
#	133654
#	144012
#	163452
#	181884
#	193404
#	208812
#	222048
#	238802
#	258740
#	280202
#	293494
#	309832
#	330879
#
# Disc length: 4799 seconds
#
# Revision: 0
# Processed by: cddbd v1.5.2PL0 Copyright (c) Steve Scherf et al.
# Submitted via: CDex 1.51
#
DISCID=2512bd15
DTITLE=DJ FIXIE PRES - In the City - Electro Beatz CD1
DYEAR=1900
DGENRE=Electro House
TTITLE0=001 - Never Touch That Switch (Dark Ho Mix)MoS 07erELH120# - ROBBIE WILLIAMS
TTITLE1=002 - Ride A White Horse (Serge Santiago Re-Edit) CD Pool - Classis 56 January 2007 07erELH121.58# - Goldfrapp
TTITLE2=003 - Dance With Me (High Voltage Mix)CP 07erELH124.01# - AM2PM
TTITLE3=004 - Hoerspielmusik (B1 Sono RMX)PP 07erELH123# - Tape Deck Project
TTITLE4=005 - Number 1 (Steve Angelo Remix) DJ Promotion CD Pool Tech Mix 79 07erELH124.62# - Goldfrapp
TTITLE5=006 - Panache (Main Mix)openning tool AM 07erELH125.01# - CLAUDE MONNET Pres. TORRE
TTITLE6=007 - Another One Bits The Dust AM 07erELH125.00# - Queen vs The Miami Project
TTITLE7=008 - Overkill AM 07erELH125.01# - Kosheen
TTITLE8=009 - Hit Girl (Radio Edit)  AM 07erELH125.19# - Sebastien Leger
TTITLE9=010 - Philosophy (Steve Watt Mix) DJ Promotion CD Pool Tech Mix 77the drill style 07erELH125.94# - Tom Snare
TTITLE10=011 - We are family (2-4 Grooves RMX) PP 07erELH126.00# - Groovestylerz
TTITLE11=012 - People (Original Mix)AM 07erELH126.01# - Jimmy Hill
TTITLE12=013 - Feedback AM 07erELH126.00# - John Acquaviva and Madox
TTITLE13=014 - Blinded By The Light (New Electro Remix)PP 07erELH126.01# - MICHAEL MIND FEAT. MANFRED MANNS EARTH BAND
TTITLE14=015 - Paxi Fixi (Original Mix)PP 07erELH126.00# - V-Heads
TTITLE15=016 - Yeah Yeah (D.Ramirez RMX) DJ Promotion CD Pool Tech Mix 80 07erELH126.00# - Bodyrox Feat. Luciana
TTITLE16=017 - Vulnerable (Jean Elan Mix) AM 07erELH126.01# - Voodoo and Serano Feat. Zoe C.
TTITLE17=018 - Watch The Sunrise (Chris Lake Remix) 07erELH125.99# - Axwell Feat Steve Edwards
TTITLE18=019 - The Creeps (Fedde Le Grand Remix) CD Pool - Club January 2007 07erELH126# - Camille Jones
TTITLE19=020 - Analog Feel (Live Cut)PP 07erELH126.01# - Cosmic Gate
TTITLE20=021 - S_Punk (Club Mix) CD Pool Club - March 06 06erELH126# - Eric Smax and Thomas Gold
EXTD=
EXTT0=
EXTT1=
EXTT2=
EXTT3=
EXTT4=
EXTT5=
EXTT6=
EXTT7=
EXTT8=
EXTT9=
EXTT10=
EXTT11=
EXTT12=
EXTT13=
EXTT14=
EXTT15=
EXTT16=
EXTT17=
EXTT18=
EXTT19=
EXTT20=
PLAYORDER=
